<svg width="26" height="26" fill="none" xmlns="http://www.w3.org/2000/svg"><path d="M24.38 15.143a.393.393 0 0 0 .67-.278v-1.018a.393.393 0 0 0-.786 0v1.018c0 .104.042.204.115.278Z" fill="#2B2A28" stroke="#2B2A28" stroke-width=".1"/><path d="M2.371 25.05H23.63a1.422 1.422 0 0 0 1.421-1.421v-6.364a.393.393 0 0 0-.786 0v6.364a.636.636 0 0 1-.635.635H2.37a.636.636 0 0 1-.635-.635V2.37a.636.636 0 0 1 .635-.635H23.63a.636.636 0 0 1 .635.635V8.05a.393.393 0 0 0 .786 0V2.371A1.422 1.422 0 0 0 23.629.95H2.37A1.421 1.421 0 0 0 .95 2.371V23.63a1.421 1.421 0 0 0 1.421 1.421Z" fill="#2B2A28" stroke="#2B2A28" stroke-width=".1"/><path d="M24.38 11.725a.393.393 0 0 0 .67-.278v-.998a.393.393 0 0 0-.786 0v.998c0 .104.042.204.115.278Z" fill="#2B2A28" stroke="#2B2A28" stroke-width=".1"/><mask id="a" maskUnits="userSpaceOnUse" x="12.586" y="4.095" width="11.314" height="11.314" fill="#000"><path fill="#fff" d="M12.586 4.095H23.9v11.314H12.586z"/><path fill-rule="evenodd" clip-rule="evenodd" d="M20.997 8.073a.343.343 0 0 0 .243-.585l-2.246-2.246a.343.343 0 0 0-.485 0l-2.245 2.246a.343.343 0 0 0 .485.485l1.66-1.66v7.706a.344.344 0 0 0 .41.336.343.343 0 0 0 .276-.336V6.313l1.66 1.66c.064.064.152.1.242.1Z"/></mask><path fill-rule="evenodd" clip-rule="evenodd" d="M20.997 8.073a.343.343 0 0 0 .243-.585l-2.246-2.246a.343.343 0 0 0-.485 0l-2.245 2.246a.343.343 0 0 0 .485.485l1.66-1.66v7.706a.344.344 0 0 0 .41.336.343.343 0 0 0 .276-.336V6.313l1.66 1.66c.064.064.152.1.242.1Z" fill="#2B2A28"/><path d="M21.34 7.73h-.1.1Zm-2.588-2.588v.1-.1Zm-2.246 2.931v-.1.1Zm1.903-1.76h.1V6.07l-.17.17.07.072Zm0 7.706h-.1.1Zm.058.19.083-.055-.083.055Zm.154.127-.039.092.039-.093Zm.198.019-.02-.098.02.098Zm.175-.094.07.07-.07-.07Zm.1-.242h-.1.1Zm0-7.706.071-.071-.17-.17v.24h.1Zm2.075 1.59a.243.243 0 0 1-.172.07v.2c.118 0 .23-.046.314-.13l-.142-.14Zm.071-.172a.243.243 0 0 1-.07.171l.14.142a.443.443 0 0 0 .13-.313h-.2Zm-.07-.172a.243.243 0 0 1 .07.172h.2a.443.443 0 0 0-.13-.314l-.14.142Zm-2.247-2.246L21.17 7.56l.142-.142-2.246-2.245-.142.141Zm-.171-.071c.064 0 .126.026.172.071l.14-.141a.443.443 0 0 0-.312-.13v.2Zm-.172.071a.243.243 0 0 1 .172-.071v-.2a.443.443 0 0 0-.313.13l.141.141ZM16.334 7.56l2.246-2.246-.141-.141-2.246 2.245.141.142Zm-.07.172c0-.065.025-.127.07-.172l-.141-.142a.443.443 0 0 0-.13.314h.2Zm.07.171a.243.243 0 0 1-.07-.171h-.2c0 .117.046.23.129.313l.141-.142Zm.172.071a.243.243 0 0 1-.172-.07l-.141.14c.083.084.196.13.313.13v-.2Zm.172-.07a.243.243 0 0 1-.172.07v.2c.117 0 .23-.046.313-.13l-.141-.14Zm1.66-1.661-1.66 1.66.141.142 1.66-1.66-.14-.142Zm.17 7.777V6.313h-.2v7.706h.2Zm.042.135a.242.242 0 0 1-.041-.135h-.2c0 .087.026.173.075.246l.166-.111Zm.109.09a.243.243 0 0 1-.11-.09l-.165.11c.048.074.117.13.198.164l.077-.185Zm.14.013a.243.243 0 0 1-.14-.014l-.077.185c.081.033.17.042.256.025l-.039-.196Zm.125-.066a.243.243 0 0 1-.125.066l.04.196a.444.444 0 0 0 .226-.121l-.142-.142Zm.07-.172a.243.243 0 0 1-.07.171l.14.142a.443.443 0 0 0 .13-.313h-.2Zm0-7.706v7.706h.2V6.313h-.2Zm1.832 1.59-1.66-1.661-.142.141 1.66 1.66.142-.14Zm.171.07a.243.243 0 0 1-.171-.07l-.142.14c.083.084.196.13.313.13v-.2Z" fill="#2B2A28" mask="url(#a)"/><mask id="b" maskUnits="userSpaceOnUse" x="3.815" y="12.586" width="11.314" height="11.314" fill="#000"><path fill="#fff" d="M3.815 12.586h11.314V23.9H3.815z"/><path fill-rule="evenodd" clip-rule="evenodd" d="M4.966 18.991a.343.343 0 0 1-.094-.175l.094.175Zm-.094-.175a.343.343 0 0 1-.007-.063l.007.063Zm-.007-.063v-.004.004Zm0-.004c0-.02.002-.04.005-.059l-.005.059Zm.005-.059a.349.349 0 0 1 .004-.018l-.004.018Zm.004-.018a.342.342 0 0 1 .018-.054l-.018.054Zm.018-.054a.323.323 0 0 1 .01-.023l-.01.023Zm.01-.023a.344.344 0 0 1 .064-.089l-.064.088Zm.064-.089 2.246-2.245a.343.343 0 1 1 .484.485l-1.66 1.66h7.706a.343.343 0 0 1 0 .686H6.036l1.66 1.66a.343.343 0 0 1-.484.485L4.966 18.99"/></mask><path fill-rule="evenodd" clip-rule="evenodd" d="M4.966 18.991a.343.343 0 0 1-.094-.175l.094.175Zm-.094-.175a.343.343 0 0 1-.007-.063l.007.063Zm-.007-.063v-.004.004Zm0-.004c0-.02.002-.04.005-.059l-.005.059Zm.005-.059a.349.349 0 0 1 .004-.018l-.004.018Zm.004-.018a.342.342 0 0 1 .018-.054l-.018.054Zm.018-.054a.323.323 0 0 1 .01-.023l-.01.023Zm.01-.023a.344.344 0 0 1 .064-.089l-.064.088Zm.064-.089 2.246-2.245a.343.343 0 1 1 .484.485l-1.66 1.66h7.706a.343.343 0 0 1 0 .686H6.036l1.66 1.66a.343.343 0 0 1-.484.485L4.966 18.99" fill="#2B2A28"/><path d="m4.872 18.816-.05.005.001.01.005.008.044-.023Zm-.007-.063h-.05v.005l.05-.005Zm0-.004-.05-.005v.005h.05Zm.005-.059-.049-.01v.006l.05.004Zm.004-.018-.048-.015v.005l.048.01Zm.018-.054-.046-.021-.002.005.048.016Zm.01-.023-.041-.03-.004.009.045.02Zm.108.373-.094-.176-.088.047.094.176.088-.047Zm-.088-.158-.007-.062-.1.01.007.063.1-.01Zm-.007-.057v-.005l-.1.001v.004h.1Zm0 0 .005-.058-.1-.01-.004.06.1.008Zm.004-.053.004-.018-.098-.02-.004.018.098.02Zm.003-.013.017-.054-.095-.03-.018.054.096.03Zm.015-.049.01-.023-.09-.041-.011.023.091.041Zm.006-.014.063-.088-.08-.059-.064.088.08.059Zm.073.367v-.485h-.1v.485h.1Zm-.144-.175-.098.02.098-.02Zm-.007-.063-.1.001.1-.001Zm0-.004h-.1.1Zm.005-.059-.098-.017.098.017Zm.004-.018.098.022-.098-.022Zm.018-.054-.093-.039.093.039Zm.01-.023.09.045-.09-.046Zm2.42-2.409.039.093-.038-.093Zm.132-.026v.1-.1Zm.131.026.038-.092-.038.092Zm.186.186.092-.038-.092.038Zm0 .262-.093-.038.093.038Zm-1.735 1.772-.07-.07-.171.17h.241v-.1Zm7.706 0 .002-.1h-.002v.1Zm.337.343h.1-.1Zm-.337.343v.1h.002l-.002-.1Zm-7.706 0v-.1h-.242l.171.17.07-.07Zm1.418 2.245v-.1.1Zm-2.417-2.416a.243.243 0 0 1-.067-.125l-.196.04c.017.085.06.164.121.226l.142-.142Zm-.067-.125a.242.242 0 0 1-.005-.044l-.2.002c0 .027.004.054.009.081l.196-.039Zm-.005-.044v-.003h-.2a.45.45 0 0 0 0 .005l.2-.002Zm0-.003c0-.014.002-.028.004-.042l-.197-.034a.443.443 0 0 0-.007.076h.2Zm.004-.042.003-.013-.195-.044a.458.458 0 0 0-.005.023l.197.034Zm.003-.013a.247.247 0 0 1 .012-.038l-.185-.077a.44.44 0 0 0-.022.07l.195.045Zm.012-.038a.245.245 0 0 1 .007-.016l-.178-.09a.465.465 0 0 0-.014.03l.185.076Zm.007-.016a.243.243 0 0 1 .046-.063l-.142-.141a.444.444 0 0 0-.082.113l.178.09Zm.046-.063 2.245-2.246-.141-.141-2.246 2.246.142.141Zm2.245-2.246a.242.242 0 0 1 .079-.052l-.077-.185a.444.444 0 0 0-.143.096l.141.141Zm.079-.052a.243.243 0 0 1 .093-.019v-.2a.444.444 0 0 0-.17.034l.077.185Zm.093-.019c.032 0 .063.006.093.019l.076-.185a.444.444 0 0 0-.17-.034v.2Zm.093.019c.03.012.056.03.079.052l.141-.141a.444.444 0 0 0-.144-.096l-.076.185Zm.079.052c.022.023.04.05.052.08l.185-.077a.444.444 0 0 0-.096-.144l-.141.141Zm.052.08c.013.029.019.06.019.092h.2a.443.443 0 0 0-.034-.17l-.185.077Zm.019.092a.242.242 0 0 1-.019.093l.185.077a.443.443 0 0 0 .034-.17h-.2Zm-.019.093a.242.242 0 0 1-.052.079l.141.141a.443.443 0 0 0 .096-.143l-.185-.077Zm-.052.079-1.66 1.66.14.142 1.661-1.66-.141-.142Zm-1.59 1.83h7.706v-.2H6.036v.2Zm7.704 0a.243.243 0 0 1 .17.073l.142-.14a.443.443 0 0 0-.308-.132l-.004.2Zm.17.073c.044.046.069.107.069.17h.2a.443.443 0 0 0-.127-.31l-.143.14Zm.069.17a.243.243 0 0 1-.07.171l.143.14a.443.443 0 0 0 .127-.31h-.2Zm-.07.171a.243.243 0 0 1-.169.072l.004.2a.443.443 0 0 0 .308-.132l-.143-.14Zm-.167.072H6.036v.2h7.706v-.2Zm-7.777.171 1.66 1.66.142-.14-1.66-1.661-.142.141Zm1.66 1.66a.243.243 0 0 1 .072.172h.2a.443.443 0 0 0-.13-.313l-.141.142Zm.072.172a.243.243 0 0 1-.071.172l.141.142a.443.443 0 0 0 .13-.314h-.2Zm-.071.172a.243.243 0 0 1-.172.071v.2c.117 0 .23-.046.313-.13l-.141-.14Zm-.172.071a.243.243 0 0 1-.172-.07l-.141.14c.083.084.196.13.313.13v-.2Zm-.172-.07L5.037 18.92l-.142.142 2.246 2.246.141-.142Z" fill="#2B2A28" mask="url(#b)"/></svg>