<svg width="26" height="26" fill="none" xmlns="http://www.w3.org/2000/svg"><path d="M24.38 15.143a.393.393 0 0 0 .67-.278v-1.018a.393.393 0 0 0-.786 0v1.018c0 .104.042.204.115.278Z" fill="#2B2A28" stroke="#2B2A28" stroke-width=".1"/><path d="M2.371 25.05H23.63a1.422 1.422 0 0 0 1.421-1.421v-6.364a.393.393 0 0 0-.786 0v6.364a.636.636 0 0 1-.635.635H2.37a.636.636 0 0 1-.635-.635V2.37a.636.636 0 0 1 .635-.635H23.63a.636.636 0 0 1 .635.635V8.05a.393.393 0 0 0 .786 0V2.371A1.422 1.422 0 0 0 23.629.95H2.37A1.421 1.421 0 0 0 .95 2.371V23.63a1.421 1.421 0 0 0 1.421 1.421Z" fill="#2B2A28" stroke="#2B2A28" stroke-width=".1"/><path d="M24.38 11.725a.393.393 0 0 0 .67-.278v-.998a.393.393 0 0 0-.786 0v.998c0 .104.042.204.115.278ZM14.23 11.214a.394.394 0 0 0 .278.67.393.393 0 0 0 .278-.115l6.035-6.034a.393.393 0 0 0-.555-.556l-6.035 6.035Z" fill="#2B2A28" stroke="#2B2A28" stroke-width=".1"/><path d="M20.265 8.91a.393.393 0 0 0 .67-.277V5.457a.393.393 0 0 0-.392-.393h-3.176a.393.393 0 0 0 0 .786h2.783v2.783c0 .104.041.204.115.278ZM5.18 20.265a.393.393 0 0 0 .277.67.393.393 0 0 0 .278-.114l6.034-6.035a.393.393 0 0 0-.555-.556l-6.035 6.035Z" fill="#2B2A28" stroke="#2B2A28" stroke-width=".1"/><path d="M5.457 20.936h3.176a.393.393 0 0 0 0-.786H5.85v-2.783a.393.393 0 0 0-.786 0v3.176a.393.393 0 0 0 .393.393Z" fill="#2B2A28" stroke="#2B2A28" stroke-width=".1"/></svg>